<?xml version="1.0" standalone="no"?>
<!DOCTYPE svg PUBLIC "-//W3C//DTD SVG 20010904//EN"
 "http://www.w3.org/TR/2001/REC-SVG-20010904/DTD/svg10.dtd">
<svg version="1.0" xmlns="http://www.w3.org/2000/svg"
 width="700.000000pt" height="700.000000pt" viewBox="0 0 700.000000 700.000000"
 preserveAspectRatio="xMidYMid meet">
<metadata>
Created by potrace 1.11, written by Peter Selinger 2001-2013
</metadata>
<g transform="translate(0.000000,700.000000) scale(0.100000,-0.100000)"
fill="#000000" stroke="none">
<path d="M3030 5747 c-121 -34 -218 -143 -263 -294 -27 -89 -32 -228 -12 -324
37 -186 156 -446 363 -794 52 -88 228 -372 237 -383 1 -1 17 3 35 9 l32 12 -3
145 c-4 129 -2 146 13 156 13 8 23 8 35 0 15 -10 19 -32 23 -160 l5 -149 26
-3 c24 -3 35 10 112 130 205 323 357 615 438 845 60 172 73 239 74 379 l0 130
-42 85 c-67 136 -164 216 -273 227 -110 10 -241 -64 -332 -189 l-51 -70 -28
50 c-88 154 -251 237 -389 198z m478 -1147 c39 -24 72 -75 72 -113 0 -43 -29
-97 -64 -119 -49 -30 -128 -21 -169 21 -29 29 -32 37 -32 97 0 63 1 67 37 100
31 28 46 34 80 34 25 0 57 -8 76 -20z"/>
<path d="M1915 4915 c-163 -36 -264 -130 -281 -261 -11 -90 33 -216 111 -318
20 -27 35 -49 33 -50 -2 -1 -29 -7 -60 -13 -126 -25 -230 -101 -275 -200 -22
-48 -25 -65 -21 -132 6 -97 45 -176 127 -254 70 -67 123 -98 237 -139 l89 -33
200 1 c177 1 220 5 378 33 98 17 198 31 223 31 24 0 70 11 102 24 31 13 72 27
90 31 28 6 32 4 32 -14 0 -19 6 -21 59 -21 l60 0 3 37 c4 55 33 57 42 4 5 -36
9 -40 39 -43 27 -2 3 -15 -138 -73 -311 -127 -614 -291 -798 -429 -88 -66
-205 -186 -241 -249 -42 -70 -70 -197 -63 -285 13 -174 112 -270 287 -279 80
-4 134 5 251 43 14 5 16 -7 15 -93 -1 -130 20 -196 86 -269 36 -38 64 -59 106
-74 119 -45 278 -11 391 84 61 51 157 170 191 236 82 161 144 472 184 920 18
195 30 400 25 400 -2 0 -18 4 -35 9 -32 9 -32 9 -110 -106 -68 -100 -81 -114
-103 -111 -50 6 -39 40 54 163 l87 114 87 3 86 3 0 40 0 40 -57 -1 c-50 -1
-58 1 -58 17 0 16 8 19 50 19 l50 0 0 35 0 35 -50 0 c-38 0 -50 4 -50 15 0 12
13 15 55 15 l55 0 0 45 0 45 -93 0 -92 0 -135 162 c-324 387 -636 671 -865
786 -145 72 -231 86 -360 57z m878 -819 c86 -37 118 -144 61 -207 -16 -18 -17
-18 -46 6 -33 28 -47 32 -133 43 -54 6 -60 9 -63 32 -4 40 31 92 78 117 50 27
60 28 103 9z m228 -184 c-70 -3 -85 3 -58 23 15 11 27 10 70 -4 l51 -16 -63
-3z m180 -42 c12 -7 19 -21 19 -41 0 -41 -19 -33 -35 14 -14 40 -13 42 16 27z
m19 -194 c0 -25 -5 -48 -11 -51 -15 -10 -18 -4 -25 48 -6 43 -5 47 15 47 18 0
21 -6 21 -44z m-144 -402 c46 -22 74 -70 74 -127 0 -84 -84 -148 -164 -126
-52 14 -96 70 -96 122 0 55 28 106 71 129 42 22 71 23 115 2z"/>
<path d="M4700 4892 c-52 -15 -117 -38 -143 -51 -164 -80 -450 -356 -788 -762
l-141 -168 -66 -3 -67 -3 -3 -152 -3 -153 61 0 c36 0 60 -4 60 -11 0 -6 26
-43 58 -82 111 -137 114 -142 102 -171 -19 -51 -44 -34 -138 93 l-87 119 -28
-14 c-26 -14 -27 -17 -22 -77 3 -34 10 -127 16 -207 40 -559 151 -991 307
-1204 41 -56 146 -128 230 -158 252 -88 432 66 432 369 0 67 2 74 18 68 9 -3
51 -18 92 -32 185 -62 361 6 420 163 56 150 26 294 -98 474 -67 98 -116 145
-237 225 -185 123 -405 232 -750 371 l-180 72 -5 43 -5 44 -55 0 c-44 0 -55 3
-58 18 -3 14 4 17 41 17 24 0 58 -5 76 -11 29 -10 31 -14 31 -60 l0 -49 55 0
55 0 0 35 c0 23 5 35 14 35 15 0 26 -21 26 -51 0 -16 7 -19 50 -19 36 0 52 4
56 15 4 8 13 15 20 15 8 0 17 -7 20 -15 5 -11 22 -15 65 -15 32 0 120 -11 196
-24 215 -38 358 -49 542 -43 257 8 366 44 485 162 84 83 118 149 124 240 3 57
0 81 -15 116 -42 94 -133 169 -262 215 -42 15 -78 29 -80 30 -2 2 15 24 38 50
86 98 128 233 102 329 -54 203 -291 294 -561 217z m-477 -797 c75 -52 75 -165
1 -224 -36 -28 -44 -26 -44 9 l0 30 -75 0 c-72 0 -76 1 -85 26 -25 65 3 137
64 166 45 20 104 18 139 -7z m-287 -169 c28 -21 14 -27 -42 -19 l-49 6 30 13
c38 17 38 17 61 0z m-166 -79 c0 -28 -5 -35 -33 -45 -49 -18 -117 -16 -117 3
0 12 13 15 55 15 51 0 55 2 55 24 0 22 10 33 33 35 4 1 7 -14 7 -32z m211
-596 c35 -35 39 -44 39 -88 0 -97 -76 -159 -162 -134 -159 48 -131 261 35 261
44 0 53 -4 88 -39z"/>
</g>
</svg>
